<svg xmlns="http://www.w3.org/2000/svg" viewBox="0 0 24 16" role="img" aria-label="Country flag" preserveAspectRatio="xMidYMid meet"><rect width="24" height="16" fill="#00008B"/><rect width="12" height="8" fill="#012169"/><rect x="0" y="0" width="12" height="1" fill="#FFFFFF"/><rect x="0" y="7" width="12" height="1" fill="#FFFFFF"/><rect x="0" y="3" width="12" height="2" fill="#FFFFFF"/><rect x="5" y="0" width="2" height="8" fill="#FFFFFF"/><rect x="0" y="0" width="12" height="8" fill="none" stroke="#C8102E" stroke-width="0.4"/><polygon points="5,12 5.6,13 6.6,13 5.8,13.6 6.2,14.6 5,14 3.8,14.6 4.2,13.6 3.4,13 4.4,13" fill="#FFFFFF"/><polygon points="17,4 17.4,4.6 18,4.6 17.5,5 17.7,5.6 17,5.2 16.3,5.6 16.5,5 16,4.6 16.6,4.6" fill="#FFFFFF"/><polygon points="20,8 20.4,8.6 21,8.6 20.5,9 20.7,9.6 20,9.2 19.3,9.6 19.5,9 19,8.6 19.6,8.6" fill="#FFFFFF"/><polygon points="19,12 19.4,12.6 20,12.6 19.5,13 19.7,13.6 19,13.2 18.3,13.6 18.5,13 18,12.6 18.6,12.6" fill="#FFFFFF"/><polygon points="15,11 15.4,11.6 16,11.6 15.5,12 15.7,12.6 15,12.2 14.3,12.6 14.5,12 14,11.6 14.6,11.6" fill="#FFFFFF"/></svg>
